<svg width="64" height="60" viewBox="0 0 64 60" fill="none" xmlns="http://www.w3.org/2000/svg">
<path fill-rule="evenodd" clip-rule="evenodd" d="M46.0243 5.60336L14.3163 10.5407L8.58187 21.3121L54.5988 13.1915L46.0243 5.60336ZM55.5998 18.0921L45.7641 19.8278L43.1848 42.1548L55.5998 18.0921ZM37.5942 46.9803L40.6261 20.7345L25.5187 23.4005L37.5942 46.9803ZM20.3668 24.3097L9.53495 26.2212L30.9514 44.9783L20.3668 24.3097ZM45.9518 0.554398C46.9817 0.394042 48.0294 0.700978 48.8099 1.39169L63.2495 14.1702L39.8872 59.4511L0.826172 25.2404L10.2551 7.52919C10.7727 6.55695 11.7178 5.88508 12.8061 5.71561L45.9518 0.554398Z" fill="#F5C451"/>
</svg>
