<svg width="381" height="642" viewBox="0 0 381 642" fill="none" xmlns="http://www.w3.org/2000/svg">
<path d="M379.137 40.4165V601.923C379.137 623.186 361.9 640.423 340.637 640.423H40.4453C19.1824 640.423 1.94531 623.186 1.94531 601.923V40.4165C1.94531 19.1536 19.1824 1.9165 40.4453 1.9165H82.8176C90.7565 1.9165 98.5014 4.37076 104.991 8.94315L137.254 31.6728C144.249 36.6015 152.598 39.247 161.155 39.247H191.315H220.138C228.729 39.247 237.108 36.581 244.119 31.6168L276.069 8.99516C282.573 4.3898 290.346 1.9165 298.316 1.9165H340.637C361.9 1.9165 379.137 19.1535 379.137 40.4165Z" fill="#F8F8F8" stroke="#F4F4F4" stroke-width="3"/>
</svg>
