<svg width="390" height="652" viewBox="0 0 390 652" fill="none" xmlns="http://www.w3.org/2000/svg">
<path d="M388.432 40.4165V611.494C388.432 632.757 371.195 649.994 349.932 649.994H40.5029C19.24 649.994 2.00293 632.757 2.00293 611.494V40.4164C2.00293 19.1535 19.24 1.9165 40.5029 1.9165H85.2796C93.1618 1.9165 100.854 4.33581 107.317 8.84758L140.96 32.3328C147.927 37.1961 156.218 39.804 164.715 39.804H196.01H225.938C234.467 39.804 242.789 37.1758 249.772 32.2773L283.095 8.89911C289.573 4.35464 297.293 1.9165 305.206 1.9165H349.932C371.195 1.9165 388.432 19.1535 388.432 40.4165Z" fill="#1A1D29" stroke="#1D1F2C" stroke-width="3"/>
</svg>
